HIERARCHY
ROOT pelvis
{
  OFFSET 0 100 0
  CHANNELS 6 Xposition Yposition Zposition Zrotation Xrotation Yrotation
  JOINT pelvis_right_femur
  {
    OFFSET -10.78128 -3.44521 -0.5502486
    CHANNELS 3 Zrotation Xrotation Yrotation
    JOINT right_femur_tibia
    {
      OFFSET -0.8047443 -44.0398 -0.1307829
      CHANNELS 3 Zrotation Xrotation Yrotation
      JOINT right_tibia_foot
      {
        OFFSET 3.006224 -47.83518 -5
        CHANNELS 3 Zrotation Xrotation Yrotation
        End Site
        {
          OFFSET 0 -5 15
        }
      }
    }
  }
  JOINT pelvis_left_femur
  {
    OFFSET 10.78128 -3.44521 -0.5502486
    CHANNELS 3 Zrotation Xrotation Yrotation
    JOINT left_femur_tibia
    {
      OFFSET 0.8047443 -44.0398 -0.1307829
      CHANNELS 3 Zrotation Xrotation Yrotation
      JOINT left_tibia_foot
      {
        OFFSET -4.370144 -48.10324 -4.275266
        CHANNELS 3 Zrotation Xrotation Yrotation
        End Site
        {
          OFFSET 0 -5 15
        }
      }
    }
  }
  JOINT pelvis_spine1
  {
    OFFSET 0 6.468898 -3.129235
    CHANNELS 3 Zrotation Xrotation Yrotation
    JOINT spine1
    {
      OFFSET 0 23.15396 4.99043
      CHANNELS 3 Zrotation Xrotation Yrotation
      JOINT spine2
      {
        OFFSET 0 20.79997 -5.064912
        CHANNELS 3 Zrotation Xrotation Yrotation
        JOINT neck
        {
          OFFSET 0 14.38658 9.616178
          CHANNELS 3 Zrotation Xrotation Yrotation
          End Site
          {
            OFFSET 0 20 0
          }
        }
      }
      JOINT right_manubrium
      {
        OFFSET -5.722621 16.35077 3.967754
        CHANNELS 3 Zrotation Xrotation Yrotation
        JOINT right_clavicle
        {
          OFFSET -13.16364 1.694482 -4.693211
          CHANNELS 3 Zrotation Xrotation Yrotation
          JOINT right_humerus
          {
            OFFSET -28.5034 -0.3100689 -2.792744
            CHANNELS 3 Zrotation Xrotation Yrotation
            JOINT right_radius
            {
              OFFSET -25.15693 0.02248979 -1.271978
              CHANNELS 3 Zrotation Xrotation Yrotation
              End Site
              {
                OFFSET -15 0 0
              }
            }
          }
        }
      }
      JOINT left_manubrium
      {
        OFFSET 5.722621 16.35077 3.967754
        CHANNELS 3 Zrotation Xrotation Yrotation
        JOINT left_clavicle
        {
          OFFSET 13.16364 1.694482 -4.693211
          CHANNELS 3 Zrotation Xrotation Yrotation
          JOINT left_humerus
          {
            OFFSET 29.39168 -1.063119 -2.237045
            CHANNELS 3 Zrotation Xrotation Yrotation
            JOINT left_radius
            {
              OFFSET 24.59957 -0.9528479 0.9047498
              CHANNELS 3 Zrotation Xrotation Yrotation
              End Site
              {
                OFFSET 15 -0 -0
              }
            }
          }
        }
      }
    }
  }
}
MOTION
Frames: 7
Frame Time: 0.0416666666667
0 103.5113 0 2.160665 -0.2565387 0.1498322 3.637488 -15.73063 11.28746 -0 38.41864 -0 -3.206692 -19.43564 -2.901325 -8.49265 10.0286 -22.68498 -0 4.767744 -0 19.02853 -10.09664 29.01685 -2.537629 -2.044512 4.42418 2.640045 10.1931 -7.137015 1.673184 21.47988 6.781812 2.920802 -25.73498 10.21792 5.82765 -18.62646 11.47965 86.45673 37.93126 -18.40998 -0 0 13.33062 -7.427187 8.944884 5.27445 5.875734 -19.65587 -1.384124 -90.96033 22.07305 19.08245 0 0 -16.93824 14.12235 13.16709 -2.297002
0.424329 103.5856 1.577239 1.755422 0.7586659 0.2273985 4.649361 -18.44849 11.60638 -0 37.53765 -0 -3.539418 -18.50104 -2.549759 -8.502124 10.11184 -22.86568 -0 5.018384 -0 19.40351 -10.93783 29.55707 -2.622282 -2.055576 4.311244 2.830148 10.12772 -7.265571 1.679446 21.42383 6.869952 2.844581 -26.04868 10.4279 5.825078 -18.66521 11.54435 86.53216 38.16846 -18.52302 -0 0 13.19156 -6.863804 8.845816 5.195234 5.857091 -19.65011 -1.344142 -90.60012 22.03278 18.63395 0 0 -17.92768 14.55314 12.95781 -2.709048
0.7420077 103.2059 3.596627 0.8097146 1.069214 0.3052301 4.226403 -22.86735 7.733331 -0 30.59546 -0 -5.185803 -13.35259 -2.580811 -7.389331 11.39586 -21.42172 -0 4.615615 -0 10.66712 -17.85232 25.5961 -2.65926 -2.111169 4.289901 2.904358 10.08874 -7.325468 1.696616 21.40035 6.880165 2.801375 -26.18803 10.5164 5.838069 -18.70876 11.55337 86.50593 38.18299 -18.54876 -0 0 13.25967 -6.603335 8.806775 5.102408 5.87994 -19.65491 -1.258169 -90.61229 22.08234 18.59496 0 0 -18.09879 14.69224 13.03745 -2.830581
0.99657 102.895 5.623502 0.201956 2.098506 0.3580546 5.407797 -25.58584 8.599744 -0 29.90696 -0 -5.314863 -12.70218 -2.779955 -7.059143 11.66811 -21.66655 -0 5.288478 -0 9.178634 -19.5555 25.44053 -2.710895 -2.123456 4.236062 3.002633 10.04848 -7.393195 1.693792 21.36855 6.940155 2.765769 -26.35034 10.63219 5.829906 -18.74233 11.59037 86.54153 38.32476 -18.59547 -0 0 13.20138 -6.316835 8.754596 5.069453 5.880809 -19.66163 -1.225431 -90.4111 22.0407 18.35326 0 0 -18.66129 14.94037 12.91248 -3.074907
1.220726 102.5831 7.855921 -0.4164863 3.297467 0.4606466 6.811769 -28.99647 9.2252 -0 27.79615 -0 -5.523269 -11.31129 -2.572138 -6.757837 11.82079 -21.43008 -0 6.182388 -0 8.570525 -20.7889 25.10696 -2.786733 -2.223491 4.189789 3.161787 9.967582 -7.513482 1.721889 21.31978 6.969571 2.675788 -26.63986 10.81421 5.847758 -18.83017 11.61712 86.49448 38.3794 -18.6451 -0 0 13.30856 -5.782885 8.667253 4.907879 5.912173 -19.66849 -1.069706 -90.38716 22.13548 18.23938 0 0 -19.12131 15.22744 13.00834 -3.31763
1.426184 102.1102 10.49116 -0.809956 3.800116 0.6484568 7.305269 -31.64049 8.582095 -0 24.51818 -0 -5.739841 -9.192101 -2.367874 -6.373405 12.29277 -20.44001 -0 7.027871 -0 6.939581 -22.01321 23.56104 -2.837766 -2.23892 4.153458 3.231275 9.931681 -7.564393 1.713018 21.2943 7.032084 2.656831 -26.75443 10.90704 5.835762 -18.86932 11.64949 86.51504 38.51111 -18.65869 -0 0 13.28388 -5.583056 8.62851 4.894012 5.927678 -19.68374 -1.028613 -90.2147 22.06963 18.0363 0 0 -19.58631 15.44752 12.89933 -3.550898
1.60589 101.4623 13.72588 -1.086098 4.021679 0.9749874 7.385616 -33.99408 7.278082 -0 20.42029 -0 -5.960679 -6.587686 -2.103065 -5.975545 13.14503 -19.00251 -0 8.393539 -0 4.903144 -22.98855 21.37075 -2.884204 -2.239251 4.123002 3.27469 9.906339 -7.598527 1.694671 21.27411 7.103569 2.657704 -26.82045 10.97633 5.816502 -18.90024 11.68142 86.54994 38.65662 -18.66218 -0 0 13.23973 -5.47389 8.604159 4.91246 5.947451 -19.70675 -1.008129 -90.01614 21.96159 17.81973 0 0 -20.03633 15.64988 12.75329 -3.784366
